<?xml version="1.0" encoding="utf-8"?>
<!-- Generator: Adobe Illustrator 24.0.2, SVG Export Plug-In . SVG Version: 6.00 Build 0)  -->
<svg version="1.1" id="Calque_1" focusable="false" xmlns="http://www.w3.org/2000/svg" xmlns:xlink="http://www.w3.org/1999/xlink"
	 x="0px" y="0px" viewBox="0 0 24 24" style="enable-background:new 0 0 24 24;" xml:space="preserve">
<g>
	<path d="M10,20h4c0,1.1-0.9,2-2,2S10,21.1,10,20z M20,17.3V19H4v-1.6l2-1.9v-5.2c0-2.9,1.6-5.2,4-6V4c0-1.4,1.5-2.5,3-1.8
		c0.7,0.3,1,1,1,1.8v0.4c2.4,0.8,4,3.1,4,6v5.1L20,17.3z M19,17.8l-2-1.9v-5.5c0-2.5-1.2-4.4-3.1-5.1c-1.3-0.5-2.6-0.5-3.8,0
		C8.1,6.1,7,8,7,10.4v5.5l-2,1.9V18h14V17.8z"/>
</g>
</svg>
