<?xml version="1.0" encoding="utf-8"?>
<!-- Generator: Adobe Illustrator 24.0.2, SVG Export Plug-In . SVG Version: 6.00 Build 0)  -->
<svg version="1.1" id="Calque_1" focusable="false" xmlns="http://www.w3.org/2000/svg" xmlns:xlink="http://www.w3.org/1999/xlink"
	 x="0px" y="0px" viewBox="0 0 24 24" style="enable-background:new 0 0 24 24;" xml:space="preserve">
<g>
	<path d="M10,14.6V9.3l5,2.7L10,14.6z M17.8,10.3C17,10,16.6,9.8,16.6,9.8L18,9.1c1.8-1,2.5-3.2,1.6-5.1s-3.2-2.5-5.1-1.6L6,6.9
		c-1.3,0.7-2.1,2-2,3.5c0.1,1.4,0.9,2.7,2.2,3.3c0,0,1.2,0.5,1.2,0.5L6,14.9c-1.8,1-2.5,3.2-1.6,5.1s3.2,2.5,5.1,1.6l8.5-4.5
		c1.3-0.7,2.1-2,2-3.5C19.9,12.1,19.1,10.9,17.8,10.3z M17.5,16.2L9,20.7c-1.3,0.7-3,0.2-3.7-1.1s-0.2-3,1.1-3.7l2-1.1v-1.2
		l-0.7-0.3l-1.1-0.5c-1-0.4-1.7-1.4-1.7-2.4C4.9,9.3,5.5,8.3,6.5,7.8L15,3.3c1.3-0.7,3-0.2,3.7,1.1c0.7,1.3,0.2,3-1.1,3.7l-2,1.1
		v1.2l1.8,0.7c1,0.4,1.6,1.4,1.7,2.4C19,14.7,18.5,15.7,17.5,16.2z"/>
</g>
</svg>
